<?xml version="1.0" encoding="utf-8"?>
<!-- Generator: Adobe Illustrator 16.0.3, SVG Export Plug-In . SVG Version: 6.00 Build 0)  -->
<!DOCTYPE svg PUBLIC "-//W3C//DTD SVG 1.1//EN" "http://www.w3.org/Graphics/SVG/1.1/DTD/svg11.dtd">
<svg version="1.1" id="Capa_1" xmlns="http://www.w3.org/2000/svg" xmlns:xlink="http://www.w3.org/1999/xlink" x="0px" y="0px"
	 width="176.281px" height="166px" viewBox="0 0 176.281 166" enable-background="new 0 0 176.281 166" xml:space="preserve">
<g>
	<path d="M99.212,0.867c39.635,3.566,77.197,37.286,77.069,82.386
		c-0.128,44.739-37.488,78.317-77.069,81.88C97.239,166.121,94.937,164.75,93,166c-3.333,0-6.667,0-10,0
		c-0.992-5.422-0.561-10.924-0.063-16.289c0.557-5.992,0.699-11.957,0.768-17.947c0.08-6.908,1.222-8.158,8.272-8.027
		c11.038,0.205,21.761,2.957,32.653,4.363c1.486,0.191,2.97,0.393,4.455,0.584c5.436,0.701,9.284-1.383,12.001-6.141
		c2.575-4.508,4.851-9.129,6.376-14.082c1.613-5.242,0.99-6.711-3.871-9.183c-7.721-3.924-15.729-7.25-23.435-11.223
		c-7.415-3.823-13.798-8.331-17.117-16.591c-2.566-6.388-8.093-10.542-13.945-13.882c-4.215-2.406-6.647-5.65-7.766-10.382
		c-1.377-5.828-3.107-11.586-4.942-17.297c-1.508-4.693-2.791-4.958-6.273-1.258c-3.449,3.664-6.321,7.722-7.995,12.555
		c-0.524,1.514-0.833,3.736-2.753,3.767c-1.718,0.026-2.556-1.941-3.397-3.364c-2.04-3.451-3.638-7.119-5.105-10.843
		c-1.011-2.566-2.351-2.95-4.378-0.901c-7.898,7.982-16.207,20.428-6.887,33.844c1.895,2.729,1.549,5.586,0.232,8.548
		c-2.618,5.889-6.5,10.845-10.955,15.389c-6.419,6.551-13.014,12.912-20.787,17.89c-3.976,2.547-6.175,1.701-6.85-2.934
		c-0.452-3.105-0.956-6.253-0.726-9.433C0.278,91.448,1.047,89.633,0,88c0-3,0-6,0-9c1.083-1.904,0.253-3.974,0.516-5.949
		c0.04-16.139,6.994-29.606,16.952-41.557C29.564,16.977,44.723,6.823,63.217,1.998c4.547-1.187,9.142-1.504,13.794-1.482
		C79,0.255,81.082,1.083,83,0c3.333,0,6.667,0,10,0C94.937,1.25,97.239-0.121,99.212,0.867z"/>
</g>
</svg>