<svg viewBox="0 0 534 667.5" version="1.1" xml:space="preserve" fill-rule="evenodd" clip-rule="evenodd" stroke-linejoin="round" stroke-miterlimit="2"><path d="M295.79,344.14l154.157,154.049c13.37,13.361 35.039,13.357 48.404,-0.009c0.003,-0.002 0.005,-0.004 0.007,-0.007c13.382,-13.382 13.382,-35.078 0,-48.46l-154.1,-154.101c45.045,-67.662 37.738,-159.969 -21.917,-219.623c-67.983,-67.983 -178.37,-67.983 -246.352,-0l-0,-0c-67.983,67.982 -67.983,178.369 -0,246.352c59.709,59.709 152.129,66.976 219.801,21.799Zm65.127,-8.298c-3.705,4.541 -7.674,8.937 -11.906,13.169c-4.178,4.178 -8.516,8.099 -12.995,11.764l125.712,125.625c6.861,6.856 17.98,6.854 24.838,-0.005l0.007,-0.007c6.874,-6.873 6.874,-18.017 0,-24.89l-125.656,-125.656Zm-273.143,-248.068c61.478,-61.479 161.303,-61.478 222.782,-0c61.478,61.478 61.478,161.303 -0,222.782c-61.479,61.478 -161.304,61.478 -222.782,-0c-61.478,-61.479 -61.479,-161.304 -0,-222.782l-0,-0Zm246.473,221.398c-3.7,4.533 -7.671,8.933 -11.906,13.169c-4.181,4.181 -8.523,8.104 -13.006,11.772l14.826,14.815c4.516,-3.615 8.88,-7.516 13.065,-11.702c4.239,-4.238 8.185,-8.658 11.839,-13.236l-14.818,-14.818Zm-232.56,-207.485c-53.799,53.8 -53.799,141.156 0,194.955c53.799,53.799 141.156,53.799 194.955,0c53.799,-53.799 53.799,-141.156 0,-194.955c-53.799,-53.799 -141.155,-53.799 -194.955,0l0,0Zm11.785,11.785c47.295,-47.295 124.09,-47.295 171.385,0c47.295,47.295 47.295,124.09 0,171.385c-47.295,47.295 -124.09,47.295 -171.385,0c-47.295,-47.295 -47.295,-124.09 0,-171.385l0,0Zm82.785,124.327c2.385,6.904 8.11,12.505 15.048,14.725c6.938,2.22 14.055,0.727 18.707,-3.925c6.03,-6.03 12.557,-12.557 18.587,-18.587c4.652,-4.652 6.145,-11.769 3.925,-18.707c-2.22,-6.938 -7.821,-12.663 -14.725,-15.048c-9.16,-3.165 -19.131,-6.61 -28.399,-9.812c-7.076,-2.444 -14.422,-1.003 -19.19,3.765c-4.768,4.768 -6.209,12.114 -3.765,19.19c3.202,9.268 6.647,19.239 9.812,28.399Zm-47.769,-31.153c5.815,-5.815 16.201,-4.871 23.179,2.107c6.978,6.978 7.922,17.364 2.107,23.179c-5.815,5.815 -16.201,4.871 -23.179,-2.107c-6.978,-6.978 -7.922,-17.364 -2.107,-23.179Zm10.536,-47.622c5.815,-5.815 16.201,-4.871 23.179,2.107c6.978,6.978 7.922,17.364 2.107,23.179c-5.815,5.815 -16.201,4.871 -23.179,-2.107c-6.978,-6.978 -7.922,-17.364 -2.107,-23.179Zm47.622,-10.536c5.815,-5.815 16.201,-4.871 23.179,2.107c6.978,6.978 7.922,17.364 2.107,23.179c-5.815,5.815 -16.201,4.871 -23.179,-2.107c-6.978,-6.978 -7.922,-17.364 -2.107,-23.179Z"/></svg>