<svg id="wave" viewBox="0 0 1440 100" version="1.1" xmlns="http://www.w3.org/2000/svg"><path d="M0,10L26.7,8.3C53.3,7,107,3,160,10C213.3,17,267,33,320,35C373.3,37,427,23,480,18.3C533.3,13,587,17,640,26.7C693.3,37,747,53,800,50C853.3,47,907,23,960,13.3C1013.3,3,1067,7,1120,10C1173.3,13,1227,17,1280,18.3C1333.3,20,1387,20,1440,20C1493.3,20,1547,20,1600,21.7C1653.3,23,1707,27,1760,33.3C1813.3,40,1867,50,1920,60C1973.3,70,2027,80,2080,73.3C2133.3,67,2187,43,2240,28.3C2293.3,13,2347,7,2400,10C2453.3,13,2507,27,2560,33.3C2613.3,40,2667,40,2720,48.3C2773.3,57,2827,73,2880,66.7C2933.3,60,2987,30,3040,16.7C3093.3,3,3147,7,3200,15C3253.3,23,3307,37,3360,38.3C3413.3,40,3467,30,3520,26.7C3573.3,23,3627,27,3680,25C3733.3,23,3787,17,3813,13.3L3840,10L3840,100L3813.3,100C3786.7,100,3733,100,3680,100C3626.7,100,3573,100,3520,100C3466.7,100,3413,100,3360,100C3306.7,100,3253,100,3200,100C3146.7,100,3093,100,3040,100C2986.7,100,2933,100,2880,100C2826.7,100,2773,100,2720,100C2666.7,100,2613,100,2560,100C2506.7,100,2453,100,2400,100C2346.7,100,2293,100,2240,100C2186.7,100,2133,100,2080,100C2026.7,100,1973,100,1920,100C1866.7,100,1813,100,1760,100C1706.7,100,1653,100,1600,100C1546.7,100,1493,100,1440,100C1386.7,100,1333,100,1280,100C1226.7,100,1173,100,1120,100C1066.7,100,1013,100,960,100C906.7,100,853,100,800,100C746.7,100,693,100,640,100C586.7,100,533,100,480,100C426.7,100,373,100,320,100C266.7,100,213,100,160,100C106.7,100,53,100,27,100L0,100Z"></path></svg>